<svg version="1.2" xmlns="http://www.w3.org/2000/svg" viewBox="0 0 836 196" width="836" height="196">
	<style>
		.s0 { fill: #45484c } 
		.s1 { fill: #1a2557 } 
		.s2 { fill: #01bad0 } 
	</style>
	<path id="Preencher com Cor Sólida 1" fill-rule="evenodd" class="s0" d="m99 21.48c8.75 0.27 14.75 1.02 20 2.51 4.13 1.17 10.65 3.68 14.5 5.57 3.85 1.9 10.13 5.82 13.95 8.7 3.82 2.88 9.35 8.17 12.28 11.74 2.93 3.57 7.08 9.88 9.23 14 2.14 4.13 4.94 11.1 6.21 15.5 1.92 6.66 2.31 10.34 2.31 22 0 11.66-0.39 15.34-2.31 22-1.27 4.4-4.08 11.38-6.23 15.5-2.15 4.13-5.83 9.84-8.18 12.7-2.34 2.86-6.96 7.51-10.26 10.32-3.3 2.82-8.7 6.71-12 8.66-3.3 1.95-9.82 4.82-14.5 6.39-4.68 1.57-12.1 3.37-16.5 4-4.72 0.67-11.48 0.85-16.5 0.44-4.68-0.38-11.88-1.55-16-2.6-4.12-1.06-11.55-3.89-16.5-6.3-4.95-2.42-11.68-6.58-14.95-9.25-3.27-2.67-8.33-7.78-11.24-11.36-2.91-3.58-7.08-10.1-9.27-14.5-2.19-4.4-4.78-10.92-5.76-14.5-1.35-4.94-1.78-10.22-1.77-22 0-14.1 0.25-16.27 2.72-24 1.49-4.67 4.69-11.88 7.12-16 2.42-4.13 6.59-9.93 9.28-12.9 2.68-2.97 7.34-7.3 10.37-9.63 3.03-2.32 8.43-5.82 12-7.77 3.57-1.96 9.31-4.49 12.75-5.63 3.44-1.14 8.61-2.5 11.5-3.02 2.89-0.52 10.88-0.78 17.75-0.57zm-15 30.27c-3.57 0.97-8.75 3.09-11.5 4.71-2.75 1.62-6.76 4.55-8.92 6.5-2.16 1.95-5.66 6.24-7.8 9.54-2.13 3.3-4.78 8.92-5.89 12.5-1.37 4.44-2.01 9.35-2.03 15.5-0.01 4.95 0.5 11.25 1.13 14 0.62 2.75 2.41 7.7 3.96 11 1.56 3.3 5.02 8.29 7.69 11.09 2.67 2.8 7.11 6.53 9.86 8.29 2.75 1.75 7.93 4.09 11.5 5.18 4.19 1.28 9.34 1.98 14.5 1.97 4.41-0.01 10.47-0.74 13.5-1.63 3.03-0.89 7.3-2.55 9.5-3.68 2.2-1.13 6.21-4.12 8.91-6.64 2.7-2.52 6.66-7.28 8.8-10.58 2.14-3.3 4.84-9.15 5.99-13 1.77-5.89 2.02-8.67 1.56-17.5-0.39-7.5-1.2-12.21-2.84-16.5-1.26-3.3-4.15-8.7-6.41-12-2.26-3.3-6.79-8.05-10.06-10.55-3.27-2.5-8.88-5.56-12.45-6.79-3.67-1.27-9.99-2.45-14.5-2.71-5.75-0.34-9.82 0.03-14.5 1.3z"/>
	<path id="Preencher com Cor Sólida 3" fill-rule="evenodd" class="s1" d="m742.01 16l-0.51 33.5-6 0.67c-3.3 0.38-8.02 1.46-10.5 2.4-2.48 0.95-6.94 3.35-9.92 5.33-2.98 1.98-7.31 5.85-9.63 8.6-2.31 2.75-5.34 7.25-6.73 10-1.39 2.75-3.07 7.92-3.75 11.5-0.67 3.58-1.39 7.06-1.6 7.75-0.29 0.97-4.06 1.11-16.62 0.64-8.94-0.33-16.55-0.9-16.92-1.25-0.37-0.35-0.06-4.69 0.7-9.64 0.75-4.95 2-10.8 2.78-13 0.78-2.2 3-7.15 4.93-11 1.93-3.85 6.18-10.38 9.46-14.5 3.27-4.12 7.94-9.12 10.37-11.11 2.44-1.98 6.91-5.16 9.93-7.05 3.02-1.9 8.42-4.73 12-6.3 3.58-1.56 10.33-3.64 15-4.62 4.67-0.98 10.41-1.81 17.01-1.92zm-163.51 5.45c7.72 0.26 14.85 1.15 20 2.49 4.4 1.14 11.6 3.81 16 5.93 4.4 2.11 10.81 5.93 14.25 8.49 3.44 2.55 6.25 5.09 6.25 5.64 0 0.55-4.09 5.61-9.1 11.25-5 5.64-9.39 10.38-9.75 10.53-0.36 0.15-4.36-2.21-8.9-5.25-4.85-3.25-11.03-6.38-15-7.6-3.71-1.14-9.9-2.33-13.75-2.64-4.19-0.34-9.21-0.07-12.5 0.69-3.02 0.69-8.31 2.55-11.75 4.14-3.96 1.83-8.58 5.17-12.61 9.13-3.5 3.44-7.5 8.5-8.9 11.25-1.39 2.75-3.32 7.7-4.28 11-0.97 3.34-1.78 9.54-1.81 14-0.04 4.4 0.53 10.48 1.26 13.5 0.73 3.02 2.62 8.31 4.21 11.75 1.78 3.87 5.07 8.45 8.63 12.03 3.16 3.17 8.45 7.19 11.75 8.94 3.3 1.74 8.92 3.86 12.5 4.71 3.58 0.85 8.52 1.54 11 1.54 2.48 0 7.65-0.68 11.5-1.5 3.85-0.83 10.05-2.96 20.57-7.97l-0.07-24.5h-36v-27h66v67l-4.75 3.35c-2.61 1.85-7.67 4.99-11.25 6.98-3.58 1.99-10.33 4.94-15 6.55-4.67 1.62-11.65 3.49-15.5 4.16-4.43 0.78-11.76 1.03-20 0.69-9.02-0.38-15.14-1.19-20-2.65-3.85-1.15-9.7-3.36-13-4.9-3.3-1.54-8.25-4.33-11-6.2-2.75-1.88-6.97-5.23-9.38-7.45-2.41-2.21-6.31-6.51-8.66-9.53-2.34-3.02-5.88-8.88-7.85-13-1.97-4.13-4.5-11.1-5.63-15.5-1.51-5.87-2.06-11.19-2.08-20-0.01-8.96 0.52-14.03 2.07-20 1.14-4.4 3.45-10.92 5.13-14.5 1.68-3.58 4.98-9.2 7.33-12.5 2.35-3.3 7.15-8.63 10.67-11.84 3.52-3.21 9.55-7.71 13.4-9.99 3.85-2.28 9.92-5.21 13.5-6.51 3.58-1.31 9.65-2.99 13.5-3.75 4.5-0.88 11.28-1.22 19-0.96zm-374.5 3.55l41.25-0.01c37.16-0.01 41.99 0.18 48.75 1.88 4.13 1.04 10.43 3.36 14 5.17 3.57 1.81 8.52 5.18 11 7.49 2.48 2.32 5.93 6.86 7.69 10.09 1.75 3.23 3.89 8.58 4.75 11.88 0.86 3.3 1.57 10.05 1.57 15 0.01 5.38-0.64 11.21-1.61 14.5-0.89 3.02-2.77 7.75-4.17 10.5-1.39 2.75-5.06 7.51-8.13 10.57-3.47 3.45-8.26 6.85-12.6 8.94-3.85 1.86-7.11 3.51-7.25 3.68-0.14 0.17 4.85 7.4 11.08 16.06 6.22 8.66 13.72 19.13 16.65 23.25 2.94 4.13 6.5 8.98 10.52 14.09l-38-0.01-2.89-4.29c-1.58-2.36-9.23-13.37-31.11-44.64l-9-0.66c-4.95-0.36-11.25-0.51-19 0.01l-0.5 49.5h-33zm32.87 50.18c-0.2 12.28-0.14 23.37 0.13 24.66l0.5 2.33c44.3-0.65 46.3-0.83 50-2.83 2.2-1.19 5.21-3.44 6.7-5 1.48-1.56 3.39-4.53 4.25-6.59 0.86-2.08 1.55-6.65 1.55-10.25 0-3.6-0.69-8.17-1.55-10.25-0.86-2.06-2.77-5.03-4.25-6.59-1.49-1.56-4.5-3.81-6.7-5-3.71-2-5.67-2.18-27.13-2.48l-23.13-0.31z"/>
	<path id="Preencher com Cor Sólida 4" fill-rule="evenodd" class="s2" d="m741.95 16l4.28 0.01c2.35 0.01 8.54 0.91 13.77 1.99 6.51 1.36 12.64 3.54 19.5 6.93 5.5 2.72 12.7 7.13 16 9.81 3.3 2.68 8.37 7.77 11.27 11.32 2.9 3.54 7.28 10.49 9.74 15.44 2.45 4.95 5.41 12.6 6.56 17 1.56 5.96 2.11 11.06 2.12 20 0.01 9.01-0.51 14-2.08 20-1.15 4.4-4.08 12.05-6.52 17-2.44 4.95-7.05 12.12-10.26 15.93-3.21 3.81-8.98 9.32-12.83 12.25-3.85 2.93-10.15 6.88-14 8.77-3.85 1.9-10.6 4.48-15 5.74-6.58 1.88-10.4 2.28-21.5 2.28-9.9-0.01-15.37-0.51-20.5-1.86-3.85-1.02-10.15-3.28-14-5.04-3.85-1.75-9.7-5.02-13-7.27-3.3-2.25-8.68-6.72-11.94-9.94-3.27-3.22-7.97-9.01-10.44-12.86-2.47-3.85-5.48-9.25-6.68-12-1.2-2.75-3.11-8.83-4.24-13.5-1.12-4.67-2.19-11.57-2.7-22.13l34.48 0.63 0.04 4.5c0.01 2.48 0.5 6.52 1.07 9 0.57 2.48 2.36 7.31 3.97 10.75 1.71 3.63 5.14 8.45 8.2 11.5 2.89 2.89 7.28 6.44 9.75 7.9 2.47 1.46 7.41 3.64 10.99 4.85 5.48 1.85 8.15 2.14 17 1.82 8.89-0.33 11.42-0.81 16.5-3.17 3.3-1.53 8.36-4.55 11.25-6.71 2.89-2.17 7.3-6.75 9.79-10.19 2.5-3.44 5.27-8.5 6.15-11.25 0.87-2.75 1.92-7.48 2.31-10.5 0.4-3.02 0.34-8.88-0.13-13-0.58-5.1-1.92-9.74-4.2-14.5-1.84-3.85-5.6-9.48-8.36-12.5-2.79-3.06-7.62-6.89-10.91-8.63-3.24-1.72-7.7-3.7-9.9-4.41-2.2-0.7-6.48-1.54-15-2.46zm-364.95 9l9.88 16.75c5.43 9.21 13.23 22.6 17.34 29.75 4.11 7.15 11.81 21.66 26.78 51.5v55h-32v-58l-23.67-39.25c-13.02-21.59-26.07-42.96-29-47.5-2.93-4.54-5.15-8.36-4.92-8.5 0.23-0.14 8.33-0.14 35.59 0.25zm78.13-0.5h17.43c9.59 0 17.44 0.34 17.44 0.75 0 0.41-11.67 19.99-25.94 43.5-14.27 23.51-26.53 43.55-27.25 44.52-1.16 1.58-2.18 0.05-16.69-28.77l7.92-13.5c4.35-7.42 12.23-20.93 17.5-30z"/>
</svg>